<!-- src/assets/icons/technologies/angular.svg -->
<svg xmlns="http://www.w3.org/2000/svg" viewBox="0 0 24 24" fill="#DD0031">
  <path d="M12 2L2 6l1.5 14L12 22l8.5-2L22 6 12 2zm0 2.5l6.84 15.16h-2.32l-1.38-3.42H8.86l-1.38 3.42H5.16L12 4.5zm0 3.85L9.72 13.5h4.56L12 10.35z"/>
</svg>

<!-- src/assets/icons/technologies/typescript.svg -->
<svg xmlns="http://www.w3.org/2000/svg" viewBox="0 0 24 24" fill="#3178C6">
  <path d="M12 0C5.373 0 0 5.373 0 12s5.373 12 12 12 12-5.373 12-12S18.627 0 12 0zM9.5 17.5v-3h3v3h-3zm7.5-3.5h-2v6h-2v-6h-2v-2h6v2zm-4-8C11.343 6 10 7.343 10 9s1.343 3 3 3 3-1.343 3-3-1.343-3-3-3z"/>
</svg>

<!-- src/assets/icons/technologies/javascript.svg -->
<svg xmlns="http://www.w3.org/2000/svg" viewBox="0 0 24 24" fill="#F7DF1E">
  <rect width="24" height="24" fill="#F7DF1E"/>
  <path d="M17.09 15.2c-.4-2.5-2.8-3.3-4.6-2.6-1.1.4-1.8 1.3-1.8 2.8v3.4c0 1.1-.5 1.8-1.4 1.8s-1.4-.7-1.4-1.8v-3.4c0-2.3 1.3-4 3.2-4.6 2.4-.8 5.2.3 5.9 2.8.1.4.1.4.1.6z" fill="#000"/>
</svg>

<!-- src/assets/icons/technologies/nodejs.svg -->
<svg xmlns="http://www.w3.org/2000/svg" viewBox="0 0 24 24" fill="#339933">
  <path d="M12 0C5.373 0 0 5.373 0 12s5.373 12 12 12 12-5.373 12-12S18.627 0 12 0zm-1.5 18.5c-.8 0-1.5-.7-1.5-1.5s.7-1.5 1.5-1.5 1.5.7 1.5 1.5-.7 1.5-1.5 1.5zm4.5-6c-.8 0-1.5-.7-1.5-1.5s.7-1.5 1.5-1.5 1.5.7 1.5 1.5-.7 1.5-1.5 1.5z"/>
</svg>

<!-- src/assets/icons/technologies/mongodb.svg -->
<svg xmlns="http://www.w3.org/2000/svg" viewBox="0 0 24 24" fill="#47A248">
  <path d="M12 0C5.4 0 0 5.4 0 12s5.4 12 12 12 12-5.4 12-12S18.6 0 12 0zm0 2c5.5 0 10 4.5 10 10s-4.5 10-10 10S2 17.5 2 12 6.5 2 12 2zm-1 16.5v-1.8c-.8-.2-1.5-.6-2-1.2l1.3-1.3c.3.4.7.6 1.2.7v-3.4c-1.2-.3-2-1-2-2.2 0-1.3.8-2.3 2-2.6V6h1v.7c.7.2 1.4.5 1.9 1.1l-1.3 1.3c-.3-.4-.7-.6-1.1-.7v3.1c1.2.3 2 1 2 2.2s-.8 2.3-2 2.6v.7h-1z"/>
</svg>

<!-- src/assets/icons/technologies/docker.svg -->
<svg xmlns="http://www.w3.org/2000/svg" viewBox="0 0 24 24" fill="#2496ED">
  <path d="M13.983 11.078h2.119a.186.186 0 00.186-.185V9.006a.186.186 0 00-.186-.186h-2.119a.185.185 0 00-.185.185v1.888c0 .102.083.185.185.185m-2.954-5.43h2.118a.186.186 0 00.186-.186V3.574a.186.186 0 00-.186-.185h-2.118a.185.185 0 00-.185.185v1.888c0 .102.082.185.185.186"/>
</svg>

<!-- src/assets/icons/technologies/git.svg -->
<svg xmlns="http://www.w3.org/2000/svg" viewBox="0 0 24 24" fill="#F05032">
  <path d="M23.546 10.93L13.067.452c-.604-.603-1.582-.603-2.188 0L8.708 2.627l2.76 2.76c.645-.215 1.379-.07 1.889.441.516.515.658 1.258.438 1.9l2.658 2.66c.645-.223 1.387-.078 1.9.435.721.72.721 1.884 0 2.604-.719.719-1.881.719-2.6 0-.539-.541-.674-1.337-.404-1.996L12.86 8.955v6.525c.176.086.342.203.488.348.713.721.713 1.883 0 2.6-.719.721-1.889.721-2.609 0-.719-.719-.719-1.879 0-2.598.182-.18.387-.316.605-.406V8.835c-.217-.091-.424-.222-.6-.401-.545-.543-.676-1.342-.396-2.009L7.636 3.7.45 10.881c-.6.605-.6 1.584 0 2.189l10.480 10.477c.604.604 1.582.604 2.186 0l10.43-10.43c.605-.603.605-1.582 0-2.187"/>
</svg>

<!-- src/assets/icons/technologies/aws.svg -->
<svg xmlns="http://www.w3.org/2000/svg" viewBox="0 0 24 24" fill="#FF9900">
  <path d="M6.763 10.036c0 .296.032.535.088.71.064.176.144.368.256.576.04.063.056.127.056.183 0 .08-.048.16-.152.24l-.503.335c-.072.048-.144.071-.2.071-.08 0-.16-.04-.239-.112-.112-.12-.207-.248-.279-.383-.072-.135-.144-.296-.2-.495-.503.591-1.135.886-1.887.886-.537 0-.967-.152-1.279-.447-.32-.303-.479-.71-.479-1.218 0-.537.191-.975.58-1.309.383-.335.895-.503 1.542-.503.215 0 .438.016.67.056.239.04.486.088.742.152v-.503c0-.527-.112-.895-.327-1.112-.215-.215-.583-.32-1.095-.32-.239 0-.486.032-.75.08-.264.056-.51.12-.75.2-.112.04-.2.063-.247.071-.048.016-.08.024-.104.024-.096 0-.144-.071-.144-.215v-.335c0-.112.016-.2.056-.255.04-.056.112-.104.207-.144.239-.12.526-.215.862-.295.335-.08.695-.12 1.08-.12.823 0 1.422.191 1.815.574.384.383.58.967.58 1.751v2.291zm-2.607 1.115c.215 0 .439-.04.67-.112.231-.08.436-.215.598-.391.096-.112.168-.24.2-.383.032-.144.056-.32.056-.527v-.255c-.184-.048-.383-.08-.598-.104-.215-.024-.423-.032-.63-.032-.454 0-.798.088-1.015.264-.215.176-.32.423-.32.75 0 .303.08.535.231.694.16.16.4.24.71.24l.098.056zm4.183 1.43c-.112 0-.2-.016-.255-.056-.056-.04-.104-.128-.136-.24l-1.55-5.106c-.032-.112-.048-.184-.048-.24 0-.096.048-.152.144-.152h.574c.112 0 .2.016.247.056.056.04.096.128.128.24l1.111 4.368 1.03-4.368c.024-.112.064-.2.12-.24.056-.04.144-.056.255-.056h.478c.112 0 .2.016.255.056.056.04.104.128.12.24l1.047 4.424 1.135-4.424c.032-.112.08-.2.128-.24.056-.04.136-.056.247-.056h.542c.096 0 .152.048.152.152 0 .032-.008.063-.016.104-.008.04-.024.096-.048.168l-1.598 5.106c-.032.112-.08.2-.136.24-.056.04-.136.056-.247.056h-.51c-.112 0-.2-.016-.256-.056-.056-.04-.104-.128-.12-.24L14.326 7.47l-1.015 4.368c-.024.112-.064.2-.12.24-.056.04-.144.056-.256.056h-.51zm8.217.183c-.295 0-.59-.032-.886-.104-.295-.064-.526-.144-.694-.24-.112-.064-.184-.136-.215-.2-.032-.063-.048-.128-.048-.2v-.335c0-.144.056-.215.152-.215.048 0 .096.008.144.032.048.016.12.048.2.08.255.112.526.2.798.255.279.056.55.08.83.08.454 0 .798-.08 1.047-.248.247-.168.375-.415.375-.726 0-.215-.064-.406-.2-.566-.135-.16-.375-.32-.71-.479l-1.039-.32c-.526-.168-.91-.415-1.151-.75-.24-.335-.36-.71-.36-1.128 0-.32.064-.606.2-.862.135-.255.32-.479.55-.662.231-.184.51-.32.838-.415.327-.096.678-.144 1.047-.144.128 0 .263.008.391.032.135.016.255.04.375.064.112.032.215.056.32.096.104.04.184.08.24.12.096.064.168.128.2.2.04.071.056.151.056.231v.32c0 .144-.056.215-.152.215-.064 0-.168-.032-.295-.088-.295-.144-.626-.215-.99-.215-.423 0-.75.071-.99.215-.231.144-.351.375-.351.694 0 .215.072.406.215.566.144.16.40.32.798.487l1.015.32c.518.168.894.406 1.119.718.231.32.343.702.343 1.135 0 .32-.064.614-.2.878-.135.264-.32.495-.566.694-.24.2-.534.35-.886.454-.36.112-.734.167-1.128.167z"/>
</svg>